<svg width="73" height="44" viewBox="0 0 73 44" fill="none" xmlns="http://www.w3.org/2000/svg">
<path d="M70 1.5C70 0.671574 70.6716 0 71.5 0C72.3284 0 73 0.671573 73 1.5V42.5C73 43.3284 72.3284 44 71.5 44C70.6716 44 70 43.3284 70 42.5V1.5Z" fill="#D9D9D9"/>
<path d="M60 2C60 0.895431 60.8954 0 62 0C63.1046 0 64 0.895431 64 2V42C64 43.1046 63.1046 44 62 44C60.8954 44 60 43.1046 60 42V2Z" fill="#D9D9D9"/>
<path d="M48 3C48 1.34315 49.3431 0 51 0C52.6569 0 54 1.34315 54 3V41C54 42.6569 52.6569 44 51 44C49.3431 44 48 42.6569 48 41V3Z" fill="#D9D9D9"/>
<path d="M0 10.5C0 4.70101 4.70101 0 10.5 0C16.299 0 21 4.70101 21 10.5V33.5C21 39.299 16.299 44 10.5 44C4.70101 44 0 39.299 0 33.5V10.5Z" fill="#D9D9D9"/>
<path d="M27 7.5C27 3.35787 30.3579 0 34.5 0C38.6421 0 42 3.35786 42 7.5V36.5C42 40.6421 38.6421 44 34.5 44C30.3579 44 27 40.6421 27 36.5V7.5Z" fill="#D9D9D9"/>
</svg>
