<svg width="258" height="31" viewBox="0 0 258 31" fill="none" xmlns="http://www.w3.org/2000/svg">
<path d="M0 10.2131C0 7.47054 2.22326 5.24728 4.96579 5.24728V5.24728C7.70832 5.24728 9.93158 7.47054 9.93158 10.2131V20.7299C9.93158 23.4724 7.70832 25.6957 4.96579 25.6957V25.6957C2.22326 25.6957 0 23.4724 0 20.7299V10.2131Z" fill="white"/>
<path d="M12.5138 8.72334C12.5138 6.80357 14.0701 5.24728 15.9898 5.24728V5.24728C17.9096 5.24728 19.4659 6.80356 19.4659 8.72333V22.2196C19.4659 24.1394 17.9096 25.6957 15.9898 25.6957V25.6957C14.0701 25.6957 12.5138 24.1394 12.5138 22.2196V8.72334Z" fill="white"/>
<path d="M22.7102 6.6377C22.7102 5.8698 23.3327 5.24728 24.1006 5.24728V5.24728C24.8685 5.24728 25.491 5.8698 25.491 6.6377V24.3052C25.491 25.0731 24.8685 25.6957 24.1006 25.6957V25.6957C23.3327 25.6957 22.7102 25.0731 22.7102 24.3052V6.6377Z" fill="white"/>
<path d="M28.2719 6.24044C28.2719 5.69194 28.7165 5.24728 29.265 5.24728V5.24728C29.8136 5.24728 30.2582 5.69193 30.2582 6.24044V24.7025C30.2582 25.251 29.8136 25.6957 29.265 25.6957V25.6957C28.7165 25.6957 28.2719 25.251 28.2719 24.7025V6.24044Z" fill="white"/>
<path d="M32.9066 5.94249C32.9066 5.55854 33.2179 5.24728 33.6018 5.24728V5.24728C33.9858 5.24728 34.297 5.55854 34.297 5.94249V25.0004C34.297 25.3844 33.9858 25.6957 33.6018 25.6957V25.6957C33.2179 25.6957 32.9066 25.3844 32.9066 25.0004V5.94249Z" fill="white"/>
<path d="M56.4956 23.471C56.4956 24.6996 55.4996 25.6957 54.2709 25.6957V25.6957C53.0423 25.6957 52.0462 24.6996 52.0462 23.471V7.52902C52.0462 6.30037 53.0423 5.30435 54.2709 5.30435V5.30435C55.4996 5.30435 56.4956 6.30037 56.4956 7.52902V23.471ZM43.3848 23.471C43.3848 24.6996 42.3888 25.6957 41.1602 25.6957V25.6957C39.9315 25.6957 38.9355 24.6996 38.9355 23.471V7.52902C38.9355 6.30037 39.9315 5.30435 41.1602 5.30435V5.30435C42.3888 5.30435 43.3848 6.30037 43.3848 7.52902V23.471ZM54.3006 15.4391C54.3006 16.5653 53.3876 17.4783 52.2614 17.4783H42.2204C41.0943 17.4783 40.1813 16.5653 40.1813 15.4391V15.4391C40.1813 14.3129 41.0943 13.4 42.2204 13.4H52.2614C53.3876 13.4 54.3006 14.3129 54.3006 15.4391V15.4391Z" fill="white"/>
<path d="M62.3235 23.471C62.3235 24.6996 61.3275 25.6957 60.0989 25.6957V25.6957C58.8702 25.6957 57.8742 24.6996 57.8742 23.471V7.52902C57.8742 6.30037 58.8702 5.30435 60.0989 5.30435V5.30435C61.3275 5.30435 62.3235 6.30037 62.3235 7.52902V23.471ZM73.0316 23.6413C73.0316 24.7759 72.1119 25.6957 70.9773 25.6957H61.1743C60.0398 25.6957 59.12 24.7759 59.12 23.6413V23.6413C59.12 22.5067 60.0398 21.587 61.1743 21.587H70.9773C72.1119 21.587 73.0316 22.5067 73.0316 23.6413V23.6413ZM72.5867 15.4391C72.5867 16.5653 71.6737 17.4783 70.5476 17.4783H61.1591C60.0329 17.4783 59.12 16.5653 59.12 15.4391V15.4391C59.12 14.3129 60.0329 13.4 61.1591 13.4H70.5475C71.6737 13.4 72.5867 14.3129 72.5867 15.4391V15.4391ZM73.0316 7.3587C73.0316 8.49328 72.1119 9.41304 70.9773 9.41304H61.1743C60.0398 9.41304 59.12 8.49328 59.12 7.3587V7.3587C59.12 6.22411 60.0398 5.30435 61.1743 5.30435H70.9773C72.1119 5.30435 73.0316 6.22411 73.0316 7.3587V7.3587Z" fill="white"/>
<path d="M78.3365 23.471C78.3365 24.6996 77.3405 25.6957 76.1119 25.6957V25.6957C74.8832 25.6957 73.8872 24.6996 73.8872 23.471V7.52902C73.8872 6.30037 74.8832 5.30435 76.1119 5.30435V5.30435C77.3405 5.30435 78.3365 6.30037 78.3365 7.52902V23.471ZM88.5997 23.6413C88.5997 24.7759 87.6799 25.6957 86.5453 25.6957H77.1874C76.0528 25.6957 75.133 24.7759 75.133 23.6413V23.6413C75.133 22.5067 76.0528 21.587 77.1874 21.587H86.5453C87.6799 21.587 88.5997 22.5067 88.5997 23.6413V23.6413Z" fill="white"/>
<path d="M92.9591 23.471C92.9591 24.6996 91.9631 25.6957 90.7345 25.6957V25.6957C89.5058 25.6957 88.5098 24.6996 88.5098 23.471V7.52902C88.5098 6.30037 89.5058 5.30435 90.7345 5.30435V5.30435C91.9631 5.30435 92.9591 6.30037 92.9591 7.52902V23.471Z" fill="white"/>
<path d="M102.987 26C101.049 26 99.4276 25.6652 98.1225 24.9957C96.8371 24.3261 95.8681 23.3826 95.2155 22.1652C94.5828 20.9275 94.2664 19.4565 94.2664 17.7522V7.51419C94.2664 6.29373 95.2557 5.30435 96.4762 5.30435V5.30435C97.6967 5.30435 98.686 6.29373 98.686 7.51419V17.6913C98.686 18.6652 98.8146 19.4362 99.0716 20.0043C99.3485 20.5725 99.7934 20.9783 100.406 21.2217C101.019 21.4652 101.88 21.587 102.987 21.587C104.075 21.587 104.925 21.4652 105.538 21.2217C106.171 20.9783 106.616 20.5725 106.873 20.0043C107.13 19.4362 107.258 18.6652 107.258 17.6913V7.52901C107.258 6.30036 108.254 5.30435 109.483 5.30435V5.30435C110.712 5.30435 111.708 6.30036 111.708 7.52901V17.7522C111.708 19.4565 111.382 20.9275 110.729 22.1652C110.076 23.3826 109.098 24.3261 107.792 24.9957C106.507 25.6652 104.905 26 102.987 26Z" fill="white"/>
<path d="M121.228 26C119.291 26 117.689 25.7362 116.423 25.2087C115.158 24.6812 114.218 23.9 113.605 22.8652C112.992 21.8304 112.686 20.5623 112.686 19.0609V19.0609C112.686 18.8424 112.863 18.6652 113.081 18.6652H116.742C116.91 18.6652 117.046 18.8015 117.046 18.9696V18.9696C117.046 19.7203 117.165 20.3087 117.402 20.7348C117.639 21.1406 118.064 21.4348 118.678 21.6174C119.31 21.7797 120.23 21.8609 121.436 21.8609C122.702 21.8609 123.542 21.7188 123.957 21.4348C124.373 21.1507 124.58 20.6638 124.58 19.9739C124.58 19.5072 124.511 19.1319 124.373 18.8478C124.254 18.5638 123.977 18.3304 123.542 18.1478C123.107 17.9449 122.425 17.7725 121.495 17.6304L117.995 16.9913C116.73 16.7681 115.692 16.4029 114.881 15.8957C114.09 15.3681 113.506 14.7188 113.131 13.9478C112.775 13.1565 112.597 12.2333 112.597 11.1783C112.597 10.1232 112.854 9.12898 113.368 8.19565C113.902 7.26232 114.752 6.50145 115.919 5.91304C117.105 5.30435 118.638 5 120.517 5C122.415 5 123.948 5.30435 125.114 5.91304C126.301 6.52174 127.171 7.36377 127.725 8.43913C128.278 9.4942 128.555 10.7014 128.555 12.0609V12.0609C128.555 12.1953 128.446 12.3043 128.312 12.3043H124.5C124.315 12.3043 124.165 12.1545 124.165 11.9696V11.9696C124.165 11.2594 124.056 10.7014 123.839 10.2957C123.621 9.88985 123.236 9.59565 122.682 9.41304C122.128 9.23043 121.357 9.13913 120.368 9.13913C119.103 9.13913 118.223 9.2913 117.728 9.59565C117.254 9.87971 117.016 10.3464 117.016 10.9957C117.016 11.4217 117.096 11.7667 117.254 12.0304C117.412 12.2739 117.689 12.4667 118.084 12.6087C118.5 12.7507 119.093 12.9029 119.864 13.0652L123.394 13.7652C124.778 14.029 125.876 14.4551 126.686 15.0435C127.517 15.6116 128.11 16.3014 128.466 17.113C128.822 17.9246 129 18.8275 129 19.8217C129 20.8971 128.743 21.9116 128.229 22.8652C127.715 23.7986 126.894 24.5594 125.767 25.1478C124.64 25.7159 123.127 26 121.228 26Z" fill="white"/>
<path d="M156 0.5C156 0.223857 156.224 0 156.5 0C156.776 0 157 0.223858 157 0.5V30.5C157 30.7761 156.776 31 156.5 31C156.224 31 156 30.7761 156 30.5V0.5Z" fill="#D9D9D9"/>
<path d="M200.8 26H185.856V24.528C185.856 23.2053 186.091 22.0853 186.56 21.168C187.051 20.2507 187.712 19.4613 188.544 18.8C189.397 18.1173 190.315 17.4987 191.296 16.944L194.656 15.088C195.509 14.6187 196.203 14.16 196.736 13.712C197.269 13.264 197.664 12.784 197.92 12.272C198.197 11.7387 198.336 11.1093 198.336 10.384C198.336 9.59467 198.197 8.90133 197.92 8.304C197.643 7.68533 197.152 7.20533 196.448 6.864C195.744 6.52267 194.72 6.352 193.376 6.352C191.904 6.352 190.763 6.544 189.952 6.928C189.163 7.29067 188.608 7.856 188.288 8.624C187.989 9.37067 187.84 10.32 187.84 11.472V11.856H185.536V11.344C185.536 10.0427 185.803 8.85867 186.336 7.792C186.891 6.704 187.755 5.84 188.928 5.2C190.123 4.56 191.648 4.24 193.504 4.24C195.168 4.24 196.523 4.51733 197.568 5.072C198.635 5.60533 199.413 6.33067 199.904 7.248C200.395 8.144 200.64 9.136 200.64 10.224C200.64 11.3333 200.405 12.304 199.936 13.136C199.488 13.9467 198.891 14.6507 198.144 15.248C197.397 15.824 196.565 16.3787 195.648 16.912L192.416 18.704C191.157 19.3867 190.133 20.112 189.344 20.88C188.576 21.648 188.203 22.6507 188.224 23.888H200.8V26Z" fill="white"/>
<path d="M212.368 26.32C210.576 26.32 209.019 25.8827 207.696 25.008C206.373 24.1333 205.339 22.8747 204.592 21.232C203.867 19.568 203.504 17.584 203.504 15.28C203.504 12.976 203.867 11.0027 204.592 9.36C205.339 7.696 206.373 6.42667 207.696 5.552C209.019 4.67733 210.576 4.24 212.368 4.24C214.16 4.24 215.717 4.67733 217.04 5.552C218.363 6.42667 219.387 7.696 220.112 9.36C220.859 11.0027 221.232 12.976 221.232 15.28C221.232 17.584 220.859 19.568 220.112 21.232C219.387 22.8747 218.363 24.1333 217.04 25.008C215.717 25.8827 214.16 26.32 212.368 26.32ZM212.368 24.112C213.776 24.112 214.96 23.8027 215.92 23.184C216.901 22.5653 217.627 21.6053 218.096 20.304C218.587 19.0027 218.832 17.328 218.832 15.28C218.832 13.232 218.587 11.5573 218.096 10.256C217.627 8.93333 216.901 7.96267 215.92 7.344C214.96 6.72533 213.776 6.416 212.368 6.416C210.981 6.416 209.808 6.72533 208.848 7.344C207.888 7.96267 207.163 8.93333 206.672 10.256C206.181 11.5573 205.936 13.232 205.936 15.28C205.936 17.328 206.181 19.0027 206.672 20.304C207.163 21.6053 207.888 22.5653 208.848 23.184C209.808 23.8027 210.981 24.112 212.368 24.112Z" fill="white"/>
<path d="M239.488 26H224.544V24.528C224.544 23.2053 224.778 22.0853 225.247 21.168C225.738 20.2507 226.399 19.4613 227.231 18.8C228.085 18.1173 229.002 17.4987 229.983 16.944L233.343 15.088C234.197 14.6187 234.89 14.16 235.424 13.712C235.957 13.264 236.351 12.784 236.607 12.272C236.885 11.7387 237.023 11.1093 237.023 10.384C237.023 9.59467 236.885 8.90133 236.607 8.304C236.33 7.68533 235.839 7.20533 235.135 6.864C234.431 6.52267 233.407 6.352 232.063 6.352C230.591 6.352 229.45 6.544 228.64 6.928C227.85 7.29067 227.296 7.856 226.976 8.624C226.677 9.37067 226.527 10.32 226.527 11.472V11.856H224.224V11.344C224.224 10.0427 224.49 8.85867 225.023 7.792C225.578 6.704 226.442 5.84 227.616 5.2C228.81 4.56 230.335 4.24 232.191 4.24C233.855 4.24 235.21 4.51733 236.256 5.072C237.322 5.60533 238.101 6.33067 238.591 7.248C239.082 8.144 239.327 9.136 239.327 10.224C239.327 11.3333 239.093 12.304 238.624 13.136C238.176 13.9467 237.578 14.6507 236.831 15.248C236.085 15.824 235.253 16.3787 234.336 16.912L231.104 18.704C229.845 19.3867 228.821 20.112 228.032 20.88C227.264 21.648 226.89 22.6507 226.911 23.888H239.488V26Z" fill="white"/>
<path d="M257.706 26H242.762V24.528C242.762 23.2053 242.997 22.0853 243.466 21.168C243.957 20.2507 244.618 19.4613 245.45 18.8C246.304 18.1173 247.221 17.4987 248.202 16.944L251.562 15.088C252.416 14.6187 253.109 14.16 253.642 13.712C254.176 13.264 254.57 12.784 254.826 12.272C255.104 11.7387 255.242 11.1093 255.242 10.384C255.242 9.59467 255.104 8.90133 254.826 8.304C254.549 7.68533 254.058 7.20533 253.354 6.864C252.65 6.52267 251.626 6.352 250.282 6.352C248.81 6.352 247.669 6.544 246.858 6.928C246.069 7.29067 245.514 7.856 245.194 8.624C244.896 9.37067 244.746 10.32 244.746 11.472V11.856H242.442V11.344C242.442 10.0427 242.709 8.85867 243.242 7.792C243.797 6.704 244.661 5.84 245.834 5.2C247.029 4.56 248.554 4.24 250.41 4.24C252.074 4.24 253.429 4.51733 254.474 5.072C255.541 5.60533 256.32 6.33067 256.81 7.248C257.301 8.144 257.546 9.136 257.546 10.224C257.546 11.3333 257.312 12.304 256.842 13.136C256.394 13.9467 255.797 14.6507 255.05 15.248C254.304 15.824 253.472 16.3787 252.554 16.912L249.322 18.704C248.064 19.3867 247.04 20.112 246.25 20.88C245.482 21.648 245.109 22.6507 245.13 23.888H257.706V26Z" fill="white"/>
</svg>
