<svg width="279" height="45" fill="none" xmlns="http://www.w3.org/2000/svg"><path d="M0 11.234C0 5.317 4.797.52 10.714.52c5.918 0 10.715 4.797 10.715 10.714v21.572c0 5.917-4.797 10.714-10.715 10.714C4.797 43.52 0 38.723 0 32.806V11.234ZM27 8.02a7.5 7.5 0 0 1 15 0v28a7.5 7.5 0 0 1-15 0v-28ZM49 3.52a3 3 0 1 1 6 0v37a3 3 0 1 1-6 0v-37ZM61 2.663a2.143 2.143 0 0 1 4.286 0v38.714a2.143 2.143 0 1 1-4.286 0V2.663ZM71 2.02a1.5 1.5 0 0 1 3 0v40a1.5 1.5 0 0 1-3 0v-40ZM121.896 38.72a4.8 4.8 0 1 1-9.6 0V5.44a4.8 4.8 0 1 1 9.6 0v33.28Zm-28.288 0a4.8 4.8 0 1 1-9.6 0V5.44a4.8 4.8 0 1 1 9.6 0v33.28Zm23.552-16.768a4.288 4.288 0 0 1-4.288 4.288H90.984a4.288 4.288 0 1 1 0-8.576h21.888a4.288 4.288 0 0 1 4.288 4.288ZM134.471 38.72a4.8 4.8 0 0 1-9.601 0V5.44a4.8 4.8 0 0 1 9.601 0v33.28Zm23.103.48a4.32 4.32 0 0 1-4.319 4.32h-21.376a4.32 4.32 0 0 1-.001-8.64h21.376a4.32 4.32 0 0 1 4.32 4.32Zm-.959-17.248a4.288 4.288 0 0 1-4.288 4.288h-20.481a4.287 4.287 0 0 1-4.287-4.288 4.287 4.287 0 0 1 4.287-4.288h20.481a4.288 4.288 0 0 1 4.288 4.288Zm.959-16.992a4.32 4.32 0 0 1-4.319 4.32h-21.376a4.32 4.32 0 0 1-.001-8.64h21.376a4.32 4.32 0 0 1 4.32 4.32ZM169.02 38.72a4.8 4.8 0 1 1-9.599 0V5.44a4.8 4.8 0 1 1 9.599 0v33.28Zm22.145.48a4.32 4.32 0 0 1-4.321 4.32h-20.416a4.32 4.32 0 0 1 .001-8.64h20.416a4.32 4.32 0 0 1 4.32 4.32Z" fill="#212121"/><path d="M200.57 38.72a4.8 4.8 0 1 1-9.599 0V5.44a4.8 4.8 0 1 1 9.599 0v33.28ZM222.207 44.16c-4.181 0-7.68-.704-10.496-2.112-2.773-1.408-4.864-3.392-6.272-5.952-1.365-2.603-2.048-5.696-2.048-9.28V5.408a4.768 4.768 0 0 1 9.536 0v21.28c0 2.048.277 3.67.832 4.864.597 1.195 1.557 2.048 2.88 2.56s3.179.768 5.568.768c2.347 0 4.181-.256 5.504-.768 1.365-.512 2.325-1.365 2.88-2.56.555-1.195.832-2.816.832-4.864V5.44a4.8 4.8 0 1 1 9.6 0v21.376c0 3.584-.704 6.677-2.112 9.28-1.408 2.56-3.52 4.544-6.336 5.952-2.773 1.408-6.229 2.112-10.368 2.112ZM261.565 44.16c-4.181 0-7.637-.555-10.368-1.664-2.731-1.11-4.757-2.752-6.08-4.928-1.323-2.176-1.984-4.843-1.984-8 0-.46.372-.832.832-.832h7.936a.64.64 0 0 1 .64.64c0 1.579.256 2.816.768 3.712.512.853 1.429 1.472 2.752 1.856 1.365.341 3.349.512 5.952.512 2.731 0 4.544-.299 5.44-.896.896-.597 1.344-1.621 1.344-3.072 0-.981-.149-1.77-.448-2.368-.256-.597-.853-1.088-1.792-1.472-.939-.427-2.411-.79-4.416-1.088l-7.552-1.344c-2.731-.47-4.971-1.237-6.72-2.304-1.707-1.11-2.965-2.475-3.776-4.096-.768-1.664-1.152-3.605-1.152-5.824s.555-4.31 1.664-6.272c1.152-1.963 2.987-3.563 5.504-4.8 2.56-1.28 5.867-1.92 9.92-1.92 4.096 0 7.403.64 9.92 1.92 2.56 1.28 4.437 3.05 5.632 5.312 1.195 2.219 1.792 4.757 1.792 7.616a.512.512 0 0 1-.512.512h-8.256a.704.704 0 0 1-.704-.704c0-1.493-.235-2.667-.704-3.52-.469-.853-1.301-1.472-2.496-1.856-1.195-.384-2.859-.576-4.992-.576-2.731 0-4.629.32-5.696.96-1.024.597-1.536 1.579-1.536 2.944 0 .896.171 1.621.512 2.176.341.512.939.917 1.792 1.216.896.299 2.176.619 3.84.96l7.616 1.472c2.987.555 5.355 1.45 7.104 2.688 1.792 1.195 3.072 2.645 3.84 4.352.768 1.707 1.152 3.605 1.152 5.696 0 2.261-.555 4.395-1.664 6.4-1.109 1.963-2.88 3.563-5.312 4.8-2.432 1.195-5.696 1.792-9.792 1.792Z" fill="#212121"/></svg>