<svg width="279" height="45" viewBox="0 0 279 45" fill="none" xmlns="http://www.w3.org/2000/svg">
<path d="M0 11.2343C0 5.31695 4.79695 0.52 10.7143 0.52C16.6316 0.52 21.4286 5.31695 21.4286 11.2343V32.8057C21.4286 38.723 16.6316 43.52 10.7143 43.52C4.79695 43.52 0 38.7231 0 32.8057V11.2343Z" fill="#212121"/>
<path d="M27 8.02C27 3.87787 30.3579 0.52 34.5 0.52C38.6421 0.52 42 3.87786 42 8.02V36.02C42 40.1621 38.6421 43.52 34.5 43.52C30.3579 43.52 27 40.1621 27 36.02V8.02Z" fill="#212121"/>
<path d="M49 3.52C49 1.86315 50.3431 0.52 52 0.52C53.6569 0.52 55 1.86315 55 3.52V40.52C55 42.1769 53.6569 43.52 52 43.52C50.3431 43.52 49 42.1769 49 40.52V3.52Z" fill="#212121"/>
<path d="M61 2.66286C61 1.47939 61.9594 0.52 63.1429 0.52C64.3263 0.52 65.2857 1.47939 65.2857 2.66286V41.3771C65.2857 42.5606 64.3263 43.52 63.1429 43.52C61.9594 43.52 61 42.5606 61 41.3771V2.66286Z" fill="#212121"/>
<path d="M71 2.02C71 1.19157 71.6716 0.52 72.5 0.52C73.3284 0.52 74 1.19157 74 2.02V42.02C74 42.8484 73.3284 43.52 72.5 43.52C71.6716 43.52 71 42.8484 71 42.02V2.02Z" fill="#212121"/>
<path d="M121.896 38.72C121.896 41.371 119.747 43.52 117.096 43.52C114.445 43.52 112.296 41.371 112.296 38.72V5.44C112.296 2.78903 114.445 0.639999 117.096 0.639999C119.747 0.639999 121.896 2.78903 121.896 5.44V38.72ZM93.608 38.72C93.608 41.371 91.459 43.52 88.808 43.52C86.157 43.52 84.008 41.371 84.008 38.72V5.44C84.008 2.78903 86.157 0.639999 88.808 0.639999C91.459 0.639999 93.608 2.78903 93.608 5.44V38.72ZM117.16 21.952C117.16 24.3202 115.24 26.24 112.872 26.24H90.984C88.6158 26.24 86.696 24.3202 86.696 21.952C86.696 19.5838 88.6158 17.664 90.984 17.664H112.872C115.24 17.664 117.16 19.5838 117.16 21.952Z" fill="#212121"/>
<path d="M134.471 38.72C134.471 41.371 132.321 43.52 129.671 43.52C127.02 43.52 124.87 41.371 124.87 38.72V5.44C124.87 2.78903 127.02 0.639999 129.671 0.639999C132.321 0.639999 134.471 2.78903 134.471 5.44V38.72ZM157.574 39.2C157.574 41.5859 155.64 43.52 153.255 43.52H131.879C129.493 43.52 127.559 41.5859 127.559 39.2C127.559 36.8141 129.493 34.88 131.878 34.88H153.254C155.64 34.88 157.574 36.8141 157.574 39.2ZM156.615 21.952C156.615 24.3202 154.695 26.24 152.327 26.24H131.846C129.478 26.24 127.559 24.3202 127.559 21.952C127.559 19.5838 129.478 17.664 131.846 17.664H152.327C154.695 17.664 156.615 19.5838 156.615 21.952ZM157.574 4.96C157.574 7.34587 155.64 9.28 153.255 9.28H131.879C129.493 9.28 127.559 7.34587 127.559 4.96C127.559 2.57413 129.493 0.639999 131.878 0.639999H153.254C155.64 0.639999 157.574 2.57413 157.574 4.96Z" fill="#212121"/>
<path d="M169.02 38.72C169.02 41.371 166.871 43.52 164.22 43.52C161.57 43.52 159.421 41.371 159.421 38.72V5.44C159.421 2.78903 161.57 0.639999 164.22 0.639999C166.871 0.639999 169.02 2.78903 169.02 5.43999V38.72ZM191.165 39.2C191.165 41.5859 189.23 43.52 186.844 43.52H166.428C164.043 43.52 162.109 41.5859 162.109 39.2C162.109 36.8141 164.043 34.88 166.429 34.88H186.845C189.23 34.88 191.165 36.8141 191.165 39.2Z" fill="#212121"/>
<path d="M200.57 38.72C200.57 41.371 198.421 43.52 195.771 43.52C193.12 43.52 190.971 41.371 190.971 38.72V5.44C190.971 2.78903 193.12 0.639999 195.771 0.639999C198.421 0.639999 200.57 2.78903 200.57 5.43999V38.72Z" fill="#212121"/>
<path d="M222.207 44.16C218.026 44.16 214.527 43.456 211.711 42.048C208.938 40.64 206.847 38.656 205.439 36.096C204.074 33.4933 203.391 30.4 203.391 26.816V5.408C203.391 2.7747 205.526 0.639999 208.159 0.639999C210.792 0.639999 212.927 2.77471 212.927 5.408V26.688C212.927 28.736 213.204 30.3573 213.759 31.552C214.356 32.7467 215.316 33.6 216.639 34.112C217.962 34.624 219.818 34.88 222.207 34.88C224.554 34.88 226.388 34.624 227.711 34.112C229.076 33.6 230.036 32.7467 230.591 31.552C231.146 30.3573 231.423 28.736 231.423 26.688V5.44C231.423 2.78903 233.572 0.639999 236.223 0.639999C238.874 0.639999 241.023 2.78903 241.023 5.43999V26.816C241.023 30.4 240.319 33.4933 238.911 36.096C237.503 38.656 235.391 40.64 232.575 42.048C229.802 43.456 226.346 44.16 222.207 44.16Z" fill="#212121"/>
<path d="M261.565 44.16C257.384 44.16 253.928 43.6053 251.197 42.496C248.466 41.3867 246.44 39.744 245.117 37.568C243.794 35.392 243.133 32.7253 243.133 29.568C243.133 29.1085 243.505 28.736 243.965 28.736H251.901C252.254 28.736 252.541 29.0225 252.541 29.376C252.541 30.9547 252.797 32.192 253.309 33.088C253.821 33.9413 254.738 34.56 256.061 34.944C257.426 35.2853 259.41 35.456 262.013 35.456C264.744 35.456 266.557 35.1573 267.453 34.56C268.349 33.9627 268.797 32.9387 268.797 31.488C268.797 30.5067 268.648 29.7173 268.349 29.12C268.093 28.5227 267.496 28.032 266.557 27.648C265.618 27.2213 264.146 26.8587 262.141 26.56L254.589 25.216C251.858 24.7467 249.618 23.9787 247.869 22.912C246.162 21.8027 244.904 20.4373 244.093 18.816C243.325 17.152 242.941 15.2107 242.941 12.992C242.941 10.7733 243.496 8.68266 244.605 6.72C245.757 4.75733 247.592 3.15733 250.109 1.92C252.669 0.639999 255.976 0 260.029 0C264.125 0 267.432 0.639999 269.949 1.92C272.509 3.2 274.386 4.97067 275.581 7.232C276.776 9.45066 277.373 11.9893 277.373 14.848C277.373 15.1308 277.144 15.36 276.861 15.36H268.605C268.216 15.36 267.901 15.0448 267.901 14.656C267.901 13.1627 267.666 11.9893 267.197 11.136C266.728 10.2827 265.896 9.664 264.701 9.28C263.506 8.896 261.842 8.704 259.709 8.704C256.978 8.704 255.08 9.024 254.013 9.664C252.989 10.2613 252.477 11.2427 252.477 12.608C252.477 13.504 252.648 14.2293 252.989 14.784C253.33 15.296 253.928 15.7013 254.781 16C255.677 16.2987 256.957 16.6187 258.621 16.96L266.237 18.432C269.224 18.9867 271.592 19.8827 273.341 21.12C275.133 22.3147 276.413 23.7653 277.181 25.472C277.949 27.1787 278.333 29.0773 278.333 31.168C278.333 33.4293 277.778 35.5627 276.669 37.568C275.56 39.5307 273.789 41.1307 271.357 42.368C268.925 43.5627 265.661 44.16 261.565 44.16Z" fill="#212121"/>
</svg>
