<svg width="129" height="21" viewBox="0 0 129 21" fill="none" xmlns="http://www.w3.org/2000/svg">
<path d="M0 5.21307C0 2.47054 2.22326 0.247283 4.96579 0.247283V0.247283C7.70832 0.247283 9.93158 2.47054 9.93158 5.21307V15.7299C9.93158 18.4724 7.70832 20.6957 4.96579 20.6957V20.6957C2.22326 20.6957 0 18.4724 0 15.7299V5.21307Z" fill="white"/>
<path d="M12.5138 3.72334C12.5138 1.80357 14.0701 0.247283 15.9898 0.247283V0.247283C17.9096 0.247283 19.4659 1.80356 19.4659 3.72333V17.2196C19.4659 19.1394 17.9096 20.6957 15.9898 20.6957V20.6957C14.0701 20.6957 12.5138 19.1394 12.5138 17.2196V3.72334Z" fill="white"/>
<path d="M22.7102 1.6377C22.7102 0.869796 23.3327 0.247283 24.1006 0.247283V0.247283C24.8685 0.247283 25.491 0.869795 25.491 1.6377V19.3052C25.491 20.0731 24.8685 20.6957 24.1006 20.6957V20.6957C23.3327 20.6957 22.7102 20.0731 22.7102 19.3052V1.6377Z" fill="white"/>
<path d="M28.2719 1.24044C28.2719 0.691935 28.7165 0.247283 29.265 0.247283V0.247283C29.8136 0.247283 30.2582 0.691935 30.2582 1.24044V19.7025C30.2582 20.251 29.8136 20.6957 29.265 20.6957V20.6957C28.7165 20.6957 28.2719 20.251 28.2719 19.7025V1.24044Z" fill="white"/>
<path d="M32.9066 0.942493C32.9066 0.558539 33.2179 0.247283 33.6018 0.247283V0.247283C33.9858 0.247283 34.297 0.558539 34.297 0.942492V20.0004C34.297 20.3844 33.9858 20.6957 33.6018 20.6957V20.6957C33.2179 20.6957 32.9066 20.3844 32.9066 20.0004V0.942493Z" fill="white"/>
<path d="M56.4956 18.471C56.4956 19.6996 55.4996 20.6957 54.2709 20.6957V20.6957C53.0423 20.6957 52.0462 19.6996 52.0462 18.471V2.52902C52.0462 1.30037 53.0423 0.304348 54.2709 0.304348V0.304348C55.4996 0.304348 56.4956 1.30037 56.4956 2.52902V18.471ZM43.3848 18.471C43.3848 19.6996 42.3888 20.6957 41.1602 20.6957V20.6957C39.9315 20.6957 38.9355 19.6996 38.9355 18.471V2.52902C38.9355 1.30037 39.9315 0.304348 41.1602 0.304348V0.304348C42.3888 0.304348 43.3848 1.30037 43.3848 2.52902V18.471ZM54.3006 10.4391C54.3006 11.5653 53.3876 12.4783 52.2614 12.4783H42.2204C41.0943 12.4783 40.1813 11.5653 40.1813 10.4391V10.4391C40.1813 9.31295 41.0943 8.4 42.2204 8.4H52.2614C53.3876 8.4 54.3006 9.31295 54.3006 10.4391V10.4391Z" fill="white"/>
<path d="M62.3235 18.471C62.3235 19.6996 61.3275 20.6957 60.0989 20.6957V20.6957C58.8702 20.6957 57.8742 19.6996 57.8742 18.471V2.52902C57.8742 1.30037 58.8702 0.304348 60.0989 0.304348V0.304348C61.3275 0.304348 62.3235 1.30037 62.3235 2.52902V18.471ZM73.0316 18.6413C73.0316 19.7759 72.1119 20.6957 70.9773 20.6957H61.1743C60.0398 20.6957 59.12 19.7759 59.12 18.6413V18.6413C59.12 17.5067 60.0398 16.587 61.1743 16.587H70.9773C72.1119 16.587 73.0316 17.5067 73.0316 18.6413V18.6413ZM72.5867 10.4391C72.5867 11.5653 71.6737 12.4783 70.5476 12.4783H61.1591C60.0329 12.4783 59.12 11.5653 59.12 10.4391V10.4391C59.12 9.31295 60.0329 8.4 61.1591 8.4H70.5475C71.6737 8.4 72.5867 9.31295 72.5867 10.4391V10.4391ZM73.0316 2.3587C73.0316 3.49328 72.1119 4.41304 70.9773 4.41304H61.1743C60.0398 4.41304 59.12 3.49328 59.12 2.3587V2.3587C59.12 1.22411 60.0398 0.304348 61.1743 0.304348H70.9773C72.1119 0.304348 73.0316 1.22411 73.0316 2.3587V2.3587Z" fill="white"/>
<path d="M78.3365 18.471C78.3365 19.6996 77.3405 20.6957 76.1119 20.6957V20.6957C74.8832 20.6957 73.8872 19.6996 73.8872 18.471V2.52902C73.8872 1.30037 74.8832 0.304348 76.1119 0.304348V0.304348C77.3405 0.304348 78.3365 1.30037 78.3365 2.52902V18.471ZM88.5997 18.6413C88.5997 19.7759 87.6799 20.6957 86.5453 20.6957H77.1874C76.0528 20.6957 75.133 19.7759 75.133 18.6413V18.6413C75.133 17.5067 76.0528 16.587 77.1874 16.587H86.5453C87.6799 16.587 88.5997 17.5067 88.5997 18.6413V18.6413Z" fill="white"/>
<path d="M92.9591 18.471C92.9591 19.6996 91.9631 20.6957 90.7345 20.6957V20.6957C89.5058 20.6957 88.5098 19.6996 88.5098 18.471V2.52902C88.5098 1.30037 89.5058 0.304348 90.7345 0.304348V0.304348C91.9631 0.304348 92.9591 1.30037 92.9591 2.52902V18.471Z" fill="white"/>
<path d="M102.987 21C101.049 21 99.4276 20.6652 98.1225 19.9957C96.8371 19.3261 95.8681 18.3826 95.2155 17.1652C94.5828 15.9275 94.2664 14.4565 94.2664 12.7522V2.51419C94.2664 1.29373 95.2557 0.304348 96.4762 0.304348V0.304348C97.6967 0.304348 98.686 1.29373 98.686 2.51419V12.6913C98.686 13.6652 98.8146 14.4362 99.0716 15.0043C99.3485 15.5725 99.7934 15.9783 100.406 16.2217C101.019 16.4652 101.88 16.587 102.987 16.587C104.075 16.587 104.925 16.4652 105.538 16.2217C106.171 15.9783 106.616 15.5725 106.873 15.0043C107.13 14.4362 107.258 13.6652 107.258 12.6913V2.52901C107.258 1.30036 108.254 0.304348 109.483 0.304348V0.304348C110.712 0.304348 111.708 1.30036 111.708 2.52901V12.7522C111.708 14.4565 111.382 15.9275 110.729 17.1652C110.076 18.3826 109.098 19.3261 107.792 19.9957C106.507 20.6652 104.905 21 102.987 21Z" fill="white"/>
<path d="M121.228 21C119.291 21 117.689 20.7362 116.423 20.2087C115.158 19.6812 114.218 18.9 113.605 17.8652C112.992 16.8304 112.686 15.5623 112.686 14.0609V14.0609C112.686 13.8424 112.863 13.6652 113.081 13.6652H116.742C116.91 13.6652 117.046 13.8015 117.046 13.9696V13.9696C117.046 14.7203 117.165 15.3087 117.402 15.7348C117.639 16.1406 118.064 16.4348 118.678 16.6174C119.31 16.7797 120.23 16.8609 121.436 16.8609C122.702 16.8609 123.542 16.7188 123.957 16.4348C124.373 16.1507 124.58 15.6638 124.58 14.9739C124.58 14.5072 124.511 14.1319 124.373 13.8478C124.254 13.5638 123.977 13.3304 123.542 13.1478C123.107 12.9449 122.425 12.7725 121.495 12.6304L117.995 11.9913C116.73 11.7681 115.692 11.4029 114.881 10.8957C114.09 10.3681 113.506 9.71884 113.131 8.94783C112.775 8.15652 112.597 7.23333 112.597 6.17826C112.597 5.12319 112.854 4.12898 113.368 3.19565C113.902 2.26232 114.752 1.50145 115.919 0.913043C117.105 0.304348 118.638 0 120.517 0C122.415 0 123.948 0.304348 125.114 0.913043C126.301 1.52174 127.171 2.36377 127.725 3.43913C128.278 4.4942 128.555 5.70145 128.555 7.06087V7.06087C128.555 7.19534 128.446 7.30435 128.312 7.30435H124.5C124.315 7.30435 124.165 7.15446 124.165 6.96956V6.96956C124.165 6.25942 124.056 5.70145 123.839 5.29565C123.621 4.88985 123.236 4.59565 122.682 4.41304C122.128 4.23043 121.357 4.13913 120.368 4.13913C119.103 4.13913 118.223 4.2913 117.728 4.59565C117.254 4.87971 117.016 5.34638 117.016 5.99565C117.016 6.42174 117.096 6.76667 117.254 7.03043C117.412 7.27391 117.689 7.46667 118.084 7.6087C118.5 7.75072 119.093 7.9029 119.864 8.06522L123.394 8.76522C124.778 9.02899 125.876 9.45507 126.686 10.0435C127.517 10.6116 128.11 11.3014 128.466 12.113C128.822 12.9246 129 13.8275 129 14.8217C129 15.8971 128.743 16.9116 128.229 17.8652C127.715 18.7986 126.894 19.5594 125.767 20.1478C124.64 20.7159 123.127 21 121.228 21Z" fill="white"/>
</svg>
