<svg width="102" height="31" viewBox="0 0 102 31" fill="none" xmlns="http://www.w3.org/2000/svg">
<path d="M0 0.5C0 0.223857 0.223858 0 0.5 0C0.776142 0 1 0.223858 1 0.5V30.5C1 30.7761 0.776142 31 0.5 31C0.223858 31 0 30.7761 0 30.5V0.5Z" fill="#D9D9D9"/>
<path d="M44.8 26H29.856V24.528C29.856 23.2053 30.0907 22.0853 30.56 21.168C31.0507 20.2507 31.712 19.4613 32.544 18.8C33.3973 18.1173 34.3147 17.4987 35.296 16.944L38.656 15.088C39.5093 14.6187 40.2027 14.16 40.736 13.712C41.2693 13.264 41.664 12.784 41.92 12.272C42.1973 11.7387 42.336 11.1093 42.336 10.384C42.336 9.59467 42.1973 8.90133 41.92 8.304C41.6427 7.68533 41.152 7.20533 40.448 6.864C39.744 6.52267 38.72 6.352 37.376 6.352C35.904 6.352 34.7627 6.544 33.952 6.928C33.1627 7.29067 32.608 7.856 32.288 8.624C31.9893 9.37067 31.84 10.32 31.84 11.472V11.856H29.536V11.344C29.536 10.0427 29.8027 8.85867 30.336 7.792C30.8907 6.704 31.7547 5.84 32.928 5.2C34.1227 4.56 35.648 4.24 37.504 4.24C39.168 4.24 40.5227 4.51733 41.568 5.072C42.6347 5.60533 43.4133 6.33067 43.904 7.248C44.3947 8.144 44.64 9.136 44.64 10.224C44.64 11.3333 44.4053 12.304 43.936 13.136C43.488 13.9467 42.8907 14.6507 42.144 15.248C41.3973 15.824 40.5653 16.3787 39.648 16.912L36.416 18.704C35.1573 19.3867 34.1333 20.112 33.344 20.88C32.576 21.648 32.2027 22.6507 32.224 23.888H44.8V26Z" fill="white"/>
<path d="M56.368 26.32C54.576 26.32 53.0187 25.8827 51.696 25.008C50.3733 24.1333 49.3387 22.8747 48.592 21.232C47.8667 19.568 47.504 17.584 47.504 15.28C47.504 12.976 47.8667 11.0027 48.592 9.36C49.3387 7.696 50.3733 6.42667 51.696 5.552C53.0187 4.67733 54.576 4.24 56.368 4.24C58.16 4.24 59.7173 4.67733 61.04 5.552C62.3627 6.42667 63.3867 7.696 64.112 9.36C64.8587 11.0027 65.232 12.976 65.232 15.28C65.232 17.584 64.8587 19.568 64.112 21.232C63.3867 22.8747 62.3627 24.1333 61.04 25.008C59.7173 25.8827 58.16 26.32 56.368 26.32ZM56.368 24.112C57.776 24.112 58.96 23.8027 59.92 23.184C60.9013 22.5653 61.6267 21.6053 62.096 20.304C62.5867 19.0027 62.832 17.328 62.832 15.28C62.832 13.232 62.5867 11.5573 62.096 10.256C61.6267 8.93333 60.9013 7.96267 59.92 7.344C58.96 6.72533 57.776 6.416 56.368 6.416C54.9813 6.416 53.808 6.72533 52.848 7.344C51.888 7.96267 51.1627 8.93333 50.672 10.256C50.1813 11.5573 49.936 13.232 49.936 15.28C49.936 17.328 50.1813 19.0027 50.672 20.304C51.1627 21.6053 51.888 22.5653 52.848 23.184C53.808 23.8027 54.9813 24.112 56.368 24.112Z" fill="white"/>
<path d="M83.4875 26H68.5435V24.528C68.5435 23.2053 68.7782 22.0853 69.2475 21.168C69.7382 20.2507 70.3995 19.4613 71.2315 18.8C72.0848 18.1173 73.0022 17.4987 73.9835 16.944L77.3435 15.088C78.1968 14.6187 78.8902 14.16 79.4235 13.712C79.9568 13.264 80.3515 12.784 80.6075 12.272C80.8848 11.7387 81.0235 11.1093 81.0235 10.384C81.0235 9.59467 80.8848 8.90133 80.6075 8.304C80.3302 7.68533 79.8395 7.20533 79.1355 6.864C78.4315 6.52267 77.4075 6.352 76.0635 6.352C74.5915 6.352 73.4502 6.544 72.6395 6.928C71.8502 7.29067 71.2955 7.856 70.9755 8.624C70.6768 9.37067 70.5275 10.32 70.5275 11.472V11.856H68.2235V11.344C68.2235 10.0427 68.4902 8.85867 69.0235 7.792C69.5782 6.704 70.4422 5.84 71.6155 5.2C72.8102 4.56 74.3355 4.24 76.1915 4.24C77.8555 4.24 79.2102 4.51733 80.2555 5.072C81.3222 5.60533 82.1008 6.33067 82.5915 7.248C83.0822 8.144 83.3275 9.136 83.3275 10.224C83.3275 11.3333 83.0928 12.304 82.6235 13.136C82.1755 13.9467 81.5782 14.6507 80.8315 15.248C80.0848 15.824 79.2528 16.3787 78.3355 16.912L75.1035 18.704C73.8448 19.3867 72.8208 20.112 72.0315 20.88C71.2635 21.648 70.8902 22.6507 70.9115 23.888H83.4875V26Z" fill="white"/>
<path d="M101.706 26H86.7623V24.528C86.7623 23.2053 86.9969 22.0853 87.4662 21.168C87.9569 20.2507 88.6182 19.4613 89.4502 18.8C90.3036 18.1173 91.2209 17.4987 92.2022 16.944L95.5622 15.088C96.4156 14.6187 97.1089 14.16 97.6423 13.712C98.1756 13.264 98.5702 12.784 98.8262 12.272C99.1036 11.7387 99.2422 11.1093 99.2422 10.384C99.2422 9.59467 99.1036 8.90133 98.8262 8.304C98.5489 7.68533 98.0582 7.20533 97.3542 6.864C96.6502 6.52267 95.6262 6.352 94.2822 6.352C92.8102 6.352 91.6689 6.544 90.8583 6.928C90.0689 7.29067 89.5143 7.856 89.1943 8.624C88.8956 9.37067 88.7462 10.32 88.7462 11.472V11.856H86.4423V11.344C86.4423 10.0427 86.7089 8.85867 87.2422 7.792C87.7969 6.704 88.6609 5.84 89.8343 5.2C91.0289 4.56 92.5542 4.24 94.4102 4.24C96.0742 4.24 97.4289 4.51733 98.4743 5.072C99.5409 5.60533 100.32 6.33067 100.81 7.248C101.301 8.144 101.546 9.136 101.546 10.224C101.546 11.3333 101.312 12.304 100.842 13.136C100.394 13.9467 99.7969 14.6507 99.0502 15.248C98.3036 15.824 97.4716 16.3787 96.5543 16.912L93.3223 18.704C92.0636 19.3867 91.0396 20.112 90.2503 20.88C89.4823 21.648 89.1089 22.6507 89.1302 23.888H101.706V26Z" fill="white"/>
</svg>
